<svg xmlns="http://www.w3.org/2000/svg" version="1.1" width="500px" height="500px" style="shape-rendering:geometricPrecision; text-rendering:geometricPrecision; image-rendering:optimizeQuality; fill-rule:evenodd; clip-rule:evenodd" xmlns:xlink="http://www.w3.org/1999/xlink">
<g><path style="opacity:1" fill="#ff2627" d="M 257.5,84.5 C 261.5,82.5 264.5,79.5 266.5,75.5C 266.833,74.5 267.5,73.8333 268.5,73.5C 271.833,72.1667 274.167,69.8333 275.5,66.5C 277.749,65.9202 279.415,64.5869 280.5,62.5C 285.046,57.6901 290.713,54.8568 297.5,54C 318.972,50.9848 334.472,59.1515 344,78.5C 349.096,93.7964 346.763,107.796 337,120.5C 310.5,147 284,173.5 257.5,200C 256.5,200.667 255.5,200.667 254.5,200C 228,173.5 201.5,147 175,120.5C 162.75,103.407 162.416,86.0736 174,68.5C 188.913,52.5949 206.413,49.0949 226.5,58C 236.936,66.4326 246.769,75.5993 256,85.5C 256.383,84.944 256.883,84.6107 257.5,84.5 Z M 266.5,98.5 C 266.5,104.5 266.5,110.5 266.5,116.5C 272.5,116.5 278.5,116.5 284.5,116.5C 284.5,123.5 284.5,130.5 284.5,137.5C 278.5,137.5 272.5,137.5 266.5,137.5C 266.5,143.5 266.5,149.5 266.5,155.5C 259.5,155.5 252.5,155.5 245.5,155.5C 245.5,149.5 245.5,143.5 245.5,137.5C 239.5,137.5 233.5,137.5 227.5,137.5C 227.5,130.5 227.5,123.5 227.5,116.5C 233.5,116.5 239.5,116.5 245.5,116.5C 245.5,110.5 245.5,104.5 245.5,98.5C 252.5,98.5 259.5,98.5 266.5,98.5 Z"/></g>
<g><path style="opacity:0.8" fill="#ff8e88" d="M 280.5,62.5 C 279.415,64.5869 277.749,65.9202 275.5,66.5C 276.585,64.4131 278.251,63.0798 280.5,62.5 Z"/></g>
<g><path style="opacity:0.808" fill="#ff8c84" d="M 275.5,66.5 C 274.167,69.8333 271.833,72.1667 268.5,73.5C 270.5,70.8333 272.833,68.5 275.5,66.5 Z"/></g>
<g><path style="opacity:0.788" fill="#ff8e87" d="M 266.5,75.5 C 264.5,79.5 261.5,82.5 257.5,84.5C 260.167,81.1667 263.167,78.1667 266.5,75.5 Z"/></g>
<g><path style="opacity:0.752" fill="#ff5b60" d="M 266.5,98.5 C 267.489,103.975 267.822,109.642 267.5,115.5C 273.358,115.178 279.025,115.511 284.5,116.5C 278.5,116.5 272.5,116.5 266.5,116.5C 266.5,110.5 266.5,104.5 266.5,98.5 Z"/></g>
<g><path style="opacity:1" fill="#ff2225" d="M 110.5,390.5 C 108.485,389.076 106.152,388.41 103.5,388.5C 101.901,388.768 100.568,388.434 99.5,387.5C 97.4855,386.076 95.1522,385.41 92.5,385.5C 60.7854,376.474 29.7854,365.474 -0.5,352.5C -0.5,351.167 -0.5,349.833 -0.5,348.5C 8.90549,326.103 21.5722,305.77 37.5,287.5C 38.9063,287.027 39.573,286.027 39.5,284.5C 69.4598,248.199 108.126,231.533 155.5,234.5C 162.5,234.667 169.5,234.833 176.5,235C 195.924,237.699 215.424,239.532 235,240.5C 253.533,240.272 271.699,237.605 289.5,232.5C 292.152,232.59 294.485,231.924 296.5,230.5C 300.216,228.595 304.216,227.261 308.5,226.5C 309.167,227.167 309.833,227.833 310.5,228.5C 311.864,245.275 305.531,258.442 291.5,268C 282.239,274.201 272.239,278.867 261.5,282C 250.044,284.891 238.544,287.391 227,289.5C 223.448,298.894 226.615,304.727 236.5,307C 253.973,308.321 271.307,306.987 288.5,303C 334.851,292.16 375.851,271.326 411.5,240.5C 414.089,239.581 416.089,237.914 417.5,235.5C 422.452,229.881 427.785,224.548 433.5,219.5C 434.906,219.027 435.573,218.027 435.5,216.5C 438.862,212.808 442.195,209.141 445.5,205.5C 446.906,205.027 447.573,204.027 447.5,202.5C 453.168,195.327 458.668,187.993 464,180.5C 469.363,188.442 471.863,197.276 471.5,207C 469.569,228.701 462.403,248.534 450,266.5C 415.021,316.82 370.187,355.653 315.5,383C 271.925,401.373 226.592,408.04 179.5,403C 156.064,400.984 133.064,396.817 110.5,390.5 Z"/></g>
<g><path style="opacity:1" fill="#ff332e" d="M 295.5,283.5 C 294.508,283.672 293.842,283.338 293.5,282.5C 320.421,269.206 344.754,252.206 366.5,231.5C 369.167,230.833 370.833,229.167 371.5,226.5C 377.495,220.337 383.329,214.004 389,207.5C 393.945,200.584 399.111,193.917 404.5,187.5C 405.906,187.027 406.573,186.027 406.5,184.5C 407.906,184.027 408.573,183.027 408.5,181.5C 408.56,180.957 408.893,180.624 409.5,180.5C 412.917,184.906 415.084,189.906 416,195.5C 417.025,206.282 416.359,216.949 414,227.5C 396.928,243.629 377.428,256.129 355.5,265C 336.066,273.025 316.066,279.191 295.5,283.5 Z"/></g>
<g><path style="opacity:0.412" fill="#ffaaa8" d="M 408.5,181.5 C 408.573,183.027 407.906,184.027 406.5,184.5C 406.427,182.973 407.094,181.973 408.5,181.5 Z"/></g>
<g><path style="opacity:0.482" fill="#ff9f9c" d="M 406.5,184.5 C 406.573,186.027 405.906,187.027 404.5,187.5C 404.427,185.973 405.094,184.973 406.5,184.5 Z"/></g>
<g><path style="opacity:0.808" fill="#ff9891" d="M 447.5,202.5 C 447.573,204.027 446.906,205.027 445.5,205.5C 445.427,203.973 446.094,202.973 447.5,202.5 Z"/></g>
<g><path style="opacity:0.761" fill="#ff9d99" d="M 435.5,216.5 C 435.573,218.027 434.906,219.027 433.5,219.5C 433.427,217.973 434.094,216.973 435.5,216.5 Z"/></g>
<g><path style="opacity:0.733" fill="#ff8d8c" d="M 308.5,226.5 C 308.56,225.957 308.893,225.624 309.5,225.5C 310.386,226.325 310.719,227.325 310.5,228.5C 309.833,227.833 309.167,227.167 308.5,226.5 Z"/></g>
<g><path style="opacity:0.867" fill="#ff8176" d="M 371.5,226.5 C 370.833,229.167 369.167,230.833 366.5,231.5C 367.833,229.5 369.5,227.833 371.5,226.5 Z"/></g>
<g><path style="opacity:0.91" fill="#ff7e77" d="M 296.5,230.5 C 294.485,231.924 292.152,232.59 289.5,232.5C 291.515,231.076 293.848,230.41 296.5,230.5 Z"/></g>
<g><path style="opacity:0.875" fill="#ff7c73" d="M 417.5,235.5 C 416.089,237.914 414.089,239.581 411.5,240.5C 412.911,238.086 414.911,236.419 417.5,235.5 Z"/></g>
<g><path style="opacity:0.694" fill="#ffb3b3" d="M 293.5,282.5 C 293.842,283.338 294.508,283.672 295.5,283.5C 293.782,284.224 291.948,284.891 290,285.5C 290.033,283.522 291.2,282.522 293.5,282.5 Z"/></g>
<g><path style="opacity:0.733" fill="#ffa29e" d="M 39.5,284.5 C 39.573,286.027 38.9063,287.027 37.5,287.5C 37.427,285.973 38.0937,284.973 39.5,284.5 Z"/></g>
<g><path style="opacity:0.918" fill="#ff8881" d="M 92.5,385.5 C 95.1522,385.41 97.4855,386.076 99.5,387.5C 96.8478,387.59 94.5145,386.924 92.5,385.5 Z"/></g>
<g><path style="opacity:0.694" fill="#ff8d89" d="M 103.5,388.5 C 106.152,388.41 108.485,389.076 110.5,390.5C 107.848,390.59 105.515,389.924 103.5,388.5 Z"/></g>
</svg>